<svg width="212" height="50" viewBox="0 0 212 50" fill="none" xmlns="http://www.w3.org/2000/svg">
<path d="M15 16.116C15 15.6427 14.752 15.2147 14.4653 14.8373C14.1668 14.4552 14.0032 13.9849 14 13.5C14 12.1187 15.3427 11 17 11C18.6573 11 20 12.12 20 13.5C20 13.992 19.8293 14.4507 19.5347 14.8373C19.248 15.2147 19 15.6427 19 16.116C19 16.5587 19.3707 16.9133 19.8133 16.8867C22.36 16.7347 24.8667 16.4307 27.3227 15.9853C27.4564 15.9611 27.5938 15.9644 27.7262 15.995C27.8587 16.0256 27.9835 16.0829 28.0931 16.1634C28.2027 16.2439 28.2947 16.3459 28.3635 16.4631C28.4323 16.5804 28.4765 16.7104 28.4933 16.8453C28.7951 19.2573 28.9624 21.6841 28.9947 24.1147C28.9959 24.2308 28.974 24.3461 28.9303 24.4537C28.8866 24.5613 28.8219 24.6592 28.74 24.7416C28.6581 24.8239 28.5607 24.8892 28.4533 24.9336C28.3459 24.978 28.2308 25.0005 28.1147 25C27.6427 25 27.2147 24.752 26.8373 24.4653C26.4552 24.1668 25.9849 24.0032 25.5 24C24.12 24 23 25.3427 23 27C23 28.6573 24.12 30 25.5 30C25.992 30 26.4507 29.8293 26.8373 29.5347C27.2147 29.248 27.6427 29 28.116 29C28.5293 29 28.8587 29.3493 28.828 29.7613C28.6715 31.9266 28.4068 34.0826 28.0347 36.2213C27.9993 36.4241 27.9022 36.6111 27.7566 36.7566C27.6111 36.9022 27.4241 36.9993 27.2213 37.0347C24.7947 37.4573 22.324 37.7453 19.8147 37.8907C19.7096 37.8963 19.6044 37.8804 19.5057 37.844C19.407 37.8076 19.3167 37.7514 19.2404 37.6789C19.1642 37.6063 19.1035 37.519 19.0622 37.4222C19.0208 37.3254 18.9997 37.2212 19 37.116C19 36.6427 19.248 36.2147 19.5347 35.8373C19.8293 35.4507 20 34.992 20 34.5C20 33.12 18.6573 32 17 32C15.3427 32 14 33.12 14 34.5C14 34.992 14.1707 35.4507 14.4653 35.8373C14.752 36.2147 15 36.6427 15 37.116C15.0004 37.2304 14.9778 37.3437 14.9336 37.4492C14.8894 37.5547 14.8245 37.6503 14.7427 37.7302C14.6609 37.8102 14.5638 37.8729 14.4573 37.9147C14.3508 37.9564 14.237 37.9764 14.1227 37.9733C12.0237 37.9141 9.92887 37.7539 7.84533 37.4933C7.71043 37.4765 7.58037 37.4323 7.46312 37.3635C7.34587 37.2947 7.24388 37.2027 7.16339 37.0931C7.0829 36.9835 7.02559 36.8587 6.99498 36.7262C6.96436 36.5938 6.96108 36.4564 6.98533 36.3227C7.376 34.1707 7.65733 31.98 7.824 29.7573C7.83098 29.6602 7.81783 29.5628 7.78537 29.471C7.75291 29.3792 7.70184 29.2952 7.63537 29.2241C7.5689 29.153 7.48846 29.0964 7.39908 29.0578C7.30971 29.0192 7.21333 28.9996 7.116 29C6.64267 29 6.21467 29.248 5.83733 29.5347C5.45067 29.8293 4.992 30 4.5 30C3.11867 30 2 28.6573 2 27C2 25.3427 3.12 24 4.5 24C4.992 24 5.45067 24.1707 5.83733 24.4653C6.21467 24.752 6.64267 25 7.116 25C7.23199 25.0005 7.34693 24.978 7.45412 24.9337C7.56132 24.8894 7.65863 24.8242 7.7404 24.742C7.82217 24.6597 7.88676 24.562 7.93041 24.4545C7.97406 24.3471 7.99591 24.232 7.99467 24.116C7.9655 21.9682 7.82754 19.8232 7.58133 17.6893C7.56389 17.5397 7.58049 17.388 7.62989 17.2457C7.6793 17.1033 7.76024 16.974 7.86665 16.8673C7.97307 16.7606 8.10221 16.6794 8.24444 16.6296C8.38667 16.5799 8.5383 16.5629 8.688 16.58C10.4787 16.7867 12.292 16.9187 14.124 16.972C14.2382 16.975 14.3518 16.9551 14.4581 16.9134C14.5645 16.8717 14.6614 16.8091 14.7431 16.7293C14.8248 16.6495 14.8896 16.5541 14.9337 16.4487C14.9779 16.3434 15.0004 16.2302 15 16.116Z" fill="white"/>
<path d="M67.68 9.92C67.9733 10.2667 68.12 10.6267 68.12 11C68.12 11.16 68.1067 11.3333 68.08 11.52C68.08 11.68 68.0667 11.8267 68.04 11.96C67.96 12.2533 67.7867 12.5333 67.52 12.8C67.3067 12.96 67.0133 13.08 66.64 13.16C66.4533 13.2133 66.2667 13.2533 66.08 13.28C65.8933 13.3067 65.6933 13.3467 65.48 13.4C65.2933 13.4267 65.1067 13.44 64.92 13.44C64.7333 13.44 64.5333 13.44 64.32 13.44H62.28C61.8 13.4667 61.32 13.48 60.84 13.48C60.3867 13.48 59.9333 13.48 59.48 13.48C59.5067 14.3067 59.52 15.2 59.52 16.16C59.52 17.0933 59.5067 18.1867 59.48 19.44C59.48 20.6933 59.4667 22.1467 59.44 23.8C59.44 25.4533 59.44 27.3733 59.44 29.56V32.6C59.44 32.8667 59.4533 33.0667 59.48 33.2C59.48 33.3067 59.48 33.4133 59.48 33.52C59.48 33.6 59.4667 33.7067 59.44 33.84C59.3867 34.08 59.3467 34.36 59.32 34.68C59.32 34.8133 59.3067 34.9467 59.28 35.08C59.2533 35.1867 59.2133 35.3067 59.16 35.44C59.0533 35.5467 59 35.6267 59 35.68L58.88 35.92C58.7467 36.1867 58.4933 36.44 58.12 36.68C57.5333 36.9733 56.88 37.04 56.16 36.88C55.7067 36.8267 55.36 36.7067 55.12 36.52C54.88 36.28 54.7067 36.04 54.6 35.8C54.44 35.5067 54.3467 35.2267 54.32 34.96C54.24 34.72 54.2 34.4667 54.2 34.2V13.64C54.04 13.64 53.7067 13.64 53.2 13.64C52.6933 13.64 52.1467 13.64 51.56 13.64C51 13.6133 50.4667 13.5867 49.96 13.56C49.4533 13.5333 49.1067 13.5067 48.92 13.48C48.76 13.4533 48.5067 13.4133 48.16 13.36C47.84 13.3067 47.5733 13.2533 47.36 13.2C46.8 13.04 46.36 12.7867 46.04 12.44C45.7467 12.0933 45.6 11.7067 45.6 11.28C45.6 11.12 45.6 10.96 45.6 10.8C45.6 10.64 45.6267 10.4933 45.68 10.36C45.76 10.04 45.9733 9.77333 46.32 9.56C46.4267 9.48 46.5867 9.38667 46.8 9.28C47.04 9.14667 47.2667 9.05333 47.48 9C47.8 8.89333 48.2 8.81333 48.68 8.76C48.8933 8.73333 49.1067 8.72 49.32 8.72C49.5333 8.72 49.76 8.72 50 8.72C50.9333 8.72 51.8133 8.72 52.64 8.72C53.4933 8.72 54.3867 8.70667 55.32 8.68C56.8667 8.65333 58.4 8.65333 59.92 8.68C61.4667 8.68 63 8.70667 64.52 8.76C64.8667 8.78667 65.2 8.82667 65.52 8.88C65.84 8.93333 66.16 9.02667 66.48 9.16C66.72 9.24 66.9467 9.34667 67.16 9.48C67.3733 9.58667 67.5467 9.73333 67.68 9.92ZM71.3069 18.92C72.1869 18.4933 73.1069 18.1867 74.0669 18C75.0269 17.8133 75.9735 17.7733 76.9069 17.88C77.8669 17.9867 78.7869 18.24 79.6669 18.64C80.5735 19.04 81.4002 19.6 82.1469 20.32C82.7602 20.9333 83.2935 21.68 83.7469 22.56C84.2002 23.4133 84.5335 24.2533 84.7469 25.08C85.2002 26.5467 85.2669 28.0267 84.9469 29.52C84.6269 31.0133 84.0802 32.4 83.3069 33.68C82.9335 34.2667 82.4669 34.8 81.9069 35.28C81.3735 35.7333 80.8002 36.1067 80.1869 36.4C79.3869 36.7733 78.5202 37.0267 77.5869 37.16C76.6535 37.32 75.7469 37.36 74.8669 37.28C73.2669 37.2 71.8535 36.8 70.6269 36.08C69.4269 35.36 68.4535 34.44 67.7069 33.32C66.9869 32.2 66.5069 30.9333 66.2669 29.52C66.0535 28.08 66.1469 26.6133 66.5469 25.12C66.9735 23.52 67.5869 22.2267 68.3869 21.24C69.2135 20.2267 70.1869 19.4533 71.3069 18.92ZM72.5069 24.28C72.1069 24.6533 71.8002 25.12 71.5869 25.68C71.3735 26.24 71.2402 26.8267 71.1869 27.44C71.1335 28.0267 71.1735 28.6267 71.3069 29.24C71.4669 29.8267 71.7069 30.36 72.0269 30.84C72.2935 31.24 72.7735 31.5733 73.4669 31.84C74.1602 32.1067 74.8802 32.2667 75.6269 32.32C76.4802 32.3733 77.2269 32.1467 77.8669 31.64C78.5069 31.1067 78.9869 30.4533 79.3069 29.68C79.6535 28.9067 79.8135 28.0667 79.7869 27.16C79.7602 26.2533 79.5202 25.4267 79.0669 24.68C78.7469 24.1467 78.2935 23.76 77.7069 23.52C77.1469 23.2533 76.5469 23.12 75.9069 23.12C75.2935 23.0933 74.6802 23.1867 74.0669 23.4C73.4535 23.5867 72.9335 23.88 72.5069 24.28ZM101.054 18.32C101.508 18.2133 101.961 18.24 102.414 18.4C102.894 18.56 103.334 18.8267 103.734 19.2C103.921 19.3867 104.054 19.6133 104.134 19.88C104.241 20.1467 104.294 20.4267 104.294 20.72C104.294 21.04 104.241 21.3867 104.134 21.76C104.054 22.1067 103.934 22.3733 103.774 22.56C103.561 22.8 103.281 22.9867 102.934 23.12C102.588 23.2533 102.254 23.3467 101.934 23.4C101.614 23.4267 101.334 23.44 101.094 23.44C100.881 23.44 100.761 23.44 100.734 23.44L92.8944 23.48C92.5744 23.5067 92.241 23.5333 91.8944 23.56C91.5744 23.56 91.2544 23.5467 90.9344 23.52C90.6144 23.4667 90.3077 23.3867 90.0144 23.28C89.7477 23.1467 89.4944 22.9733 89.2544 22.76C88.961 22.4667 88.7344 22.1867 88.5744 21.92C88.4144 21.6267 88.3344 21.2933 88.3344 20.92C88.3344 20.4667 88.4544 20.0267 88.6944 19.6C88.961 19.1467 89.321 18.84 89.7744 18.68C90.3344 18.44 90.9077 18.3333 91.4944 18.36C92.1077 18.36 92.721 18.3467 93.3344 18.32H101.054ZM119.76 9.04C120.266 8.90666 120.706 8.89333 121.08 9C121.48 9.08 121.813 9.25333 122.08 9.52C122.373 9.78666 122.586 10.12 122.72 10.52C122.88 10.92 122.96 11.36 122.96 11.84C122.986 13.1733 122.986 14.2133 122.96 14.96C122.96 15.7067 122.96 16.36 122.96 16.92V29.2C122.96 30.64 122.96 31.84 122.96 32.8C122.96 33.76 122.906 34.5467 122.8 35.16C122.72 35.7467 122.56 36.1867 122.32 36.48C122.106 36.7733 121.773 36.9733 121.32 37.08C120.866 37.2133 120.266 37.28 119.52 37.28C118.8 37.28 117.893 37.28 116.8 37.28C113.92 37.28 111.64 36.6 109.96 35.24C108.306 33.88 107.426 31.72 107.32 28.76C107.266 27.48 107.426 26.3067 107.8 25.24C108.173 24.1733 108.72 23.2667 109.44 22.52C110.186 21.7467 111.093 21.16 112.16 20.76C113.253 20.3333 114.493 20.1333 115.88 20.16H118.08V13C118.08 12.5733 118.08 12.16 118.08 11.76C118.08 11.3333 118.12 10.9467 118.2 10.6C118.28 10.2267 118.44 9.90667 118.68 9.64C118.92 9.37333 119.28 9.17333 119.76 9.04ZM112.8 31.24C113.36 32.0133 114.373 32.44 115.84 32.52C116.133 32.5467 116.413 32.56 116.68 32.56C116.946 32.5333 117.186 32.4933 117.4 32.44C117.64 32.4133 117.866 32.3733 118.08 32.32V24.92C117.146 24.76 116.293 24.6667 115.52 24.64C114.773 24.5867 114.026 24.8533 113.28 25.44C112.88 25.76 112.573 26.1733 112.36 26.68C112.146 27.16 112.026 27.68 112 28.24C111.973 28.7733 112.026 29.3067 112.16 29.84C112.293 30.3733 112.506 30.84 112.8 31.24ZM131.346 18.92C132.226 18.4933 133.146 18.1867 134.106 18C135.066 17.8133 136.013 17.7733 136.946 17.88C137.906 17.9867 138.826 18.24 139.706 18.64C140.613 19.04 141.439 19.6 142.186 20.32C142.799 20.9333 143.333 21.68 143.786 22.56C144.239 23.4133 144.573 24.2533 144.786 25.08C145.239 26.5467 145.306 28.0267 144.986 29.52C144.666 31.0133 144.119 32.4 143.346 33.68C142.973 34.2667 142.506 34.8 141.946 35.28C141.413 35.7333 140.839 36.1067 140.226 36.4C139.426 36.7733 138.559 37.0267 137.626 37.16C136.693 37.32 135.786 37.36 134.906 37.28C133.306 37.2 131.893 36.8 130.666 36.08C129.466 35.36 128.493 34.44 127.746 33.32C127.026 32.2 126.546 30.9333 126.306 29.52C126.093 28.08 126.186 26.6133 126.586 25.12C127.013 23.52 127.626 22.2267 128.426 21.24C129.253 20.2267 130.226 19.4533 131.346 18.92ZM132.546 24.28C132.146 24.6533 131.839 25.12 131.626 25.68C131.413 26.24 131.279 26.8267 131.226 27.44C131.173 28.0267 131.213 28.6267 131.346 29.24C131.506 29.8267 131.746 30.36 132.066 30.84C132.333 31.24 132.813 31.5733 133.506 31.84C134.199 32.1067 134.919 32.2667 135.666 32.32C136.519 32.3733 137.266 32.1467 137.906 31.64C138.546 31.1067 139.026 30.4533 139.346 29.68C139.693 28.9067 139.853 28.0667 139.826 27.16C139.799 26.2533 139.559 25.4267 139.106 24.68C138.786 24.1467 138.333 23.76 137.746 23.52C137.186 23.2533 136.586 23.12 135.946 23.12C135.333 23.0933 134.719 23.1867 134.106 23.4C133.493 23.5867 132.973 23.88 132.546 24.28ZM164.084 33.8C164.057 33.9333 164.031 34.0667 164.004 34.2C164.004 34.3067 164.004 34.4267 164.004 34.56L163.764 35.4C163.711 35.5067 163.671 35.5733 163.644 35.6L163.524 35.84C163.391 36.1333 163.151 36.3733 162.804 36.56C162.164 36.88 161.484 36.96 160.764 36.8C160.311 36.7467 159.951 36.6133 159.684 36.4C159.417 36.2133 159.231 35.9867 159.124 35.72C159.017 35.4533 158.937 35.1867 158.884 34.92C158.804 34.6533 158.764 34.4133 158.764 34.2V11.8C158.764 11.6133 158.764 11.4533 158.764 11.32C158.791 11.16 158.817 11.0133 158.844 10.88C158.871 10.6933 158.897 10.5333 158.924 10.4C158.977 10.2667 159.031 10.12 159.084 9.96C159.164 9.69333 159.311 9.48 159.524 9.32C159.844 9.08 160.151 8.94667 160.444 8.92C160.631 8.86666 160.804 8.84 160.964 8.84C161.124 8.81333 161.311 8.8 161.524 8.8C161.897 8.8 162.324 8.90667 162.804 9.12C163.177 9.33333 163.444 9.62667 163.604 10C163.871 10.5333 164.004 11.0267 164.004 11.48C164.031 11.7467 164.044 12.1467 164.044 12.68C164.071 13.2133 164.084 13.6133 164.084 13.88V14.04C164.137 14.8933 164.164 15.72 164.164 16.52C164.164 17.2933 164.151 18.1467 164.124 19.08C164.124 19.9867 164.111 20.8667 164.084 21.72C164.084 22.5467 164.084 23.3733 164.084 24.2V32.6C164.084 32.7067 164.084 32.8133 164.084 32.92C164.111 33 164.124 33.0933 164.124 33.2C164.124 33.4667 164.111 33.6667 164.084 33.8ZM172.398 21.84C172.398 22.5867 172.398 23.4267 172.398 24.36C172.424 25.2933 172.438 26.2667 172.438 27.28C172.438 28.2667 172.438 29.2533 172.438 30.24C172.438 31.2 172.424 32.0933 172.398 32.92C172.371 33.32 172.331 33.76 172.278 34.24C172.224 34.6933 172.118 35.12 171.958 35.52C171.798 35.92 171.544 36.2533 171.198 36.52C170.878 36.76 170.438 36.8667 169.878 36.84C169.051 36.7867 168.451 36.4267 168.078 35.76C167.731 35.0933 167.531 34.16 167.478 32.96C167.478 32.3467 167.464 31.64 167.438 30.84C167.438 30.04 167.424 29.2267 167.398 28.4C167.398 27.5733 167.398 26.7733 167.398 26C167.398 25.2 167.398 24.48 167.398 23.84C167.398 23.4667 167.384 23.0133 167.358 22.48C167.358 21.9467 167.371 21.4 167.398 20.84C167.424 20.28 167.491 19.7467 167.598 19.24C167.704 18.7067 167.878 18.2667 168.118 17.92C168.304 17.7067 168.571 17.5467 168.918 17.44C169.264 17.3067 169.624 17.24 169.998 17.24C170.398 17.24 170.771 17.3067 171.118 17.44C171.491 17.5733 171.758 17.76 171.918 18C172.024 18.16 172.104 18.3867 172.158 18.68C172.211 18.9733 172.251 19.3067 172.278 19.68C172.331 20.0267 172.358 20.4 172.358 20.8C172.384 21.1733 172.398 21.52 172.398 21.84ZM170.878 13.76C170.051 13.9733 169.358 13.8933 168.798 13.52C168.264 13.12 167.931 12.5333 167.798 11.76C167.691 11.2 167.731 10.7067 167.918 10.28C168.104 9.85333 168.384 9.53333 168.758 9.32C169.131 9.08 169.558 8.97333 170.038 9C170.518 9.02666 170.998 9.21333 171.478 9.56C171.931 9.88 172.251 10.2533 172.438 10.68C172.651 11.1067 172.718 11.52 172.638 11.92C172.584 12.32 172.411 12.6933 172.118 13.04C171.824 13.36 171.411 13.6 170.878 13.76ZM185.473 29.96C184.966 29.64 184.393 29.3867 183.753 29.2C183.139 29.0133 182.499 28.84 181.833 28.68C181.193 28.52 180.566 28.3467 179.953 28.16C179.339 27.9467 178.779 27.6533 178.273 27.28C177.179 26.4533 176.539 25.44 176.353 24.24C176.193 23.0133 176.459 21.7867 177.153 20.56C177.526 19.92 178.019 19.4 178.633 19C179.246 18.5733 179.913 18.2533 180.633 18.04C181.379 17.8 182.139 17.6667 182.913 17.64C183.686 17.6133 184.419 17.6533 185.113 17.76C185.566 17.84 186.046 17.96 186.553 18.12C187.059 18.2533 187.526 18.44 187.953 18.68C188.406 18.92 188.806 19.2267 189.153 19.6C189.526 19.9467 189.793 20.3867 189.953 20.92C190.059 21.2667 190.073 21.6 189.993 21.92C189.939 22.24 189.806 22.5067 189.593 22.72C189.406 22.9333 189.153 23.0933 188.833 23.2C188.539 23.3067 188.219 23.3333 187.873 23.28C187.473 23.2 187.099 23.08 186.753 22.92C186.406 22.76 186.059 22.5867 185.713 22.4C185.366 22.2133 185.006 22.0533 184.633 21.92C184.286 21.7867 183.913 21.72 183.513 21.72C182.899 21.6933 182.393 21.8 181.993 22.04C181.593 22.28 181.313 22.5733 181.153 22.92C181.019 23.2667 181.033 23.64 181.193 24.04C181.379 24.44 181.753 24.7867 182.313 25.08C182.819 25.3467 183.379 25.56 183.993 25.72C184.606 25.88 185.206 26.04 185.793 26.2C186.406 26.36 186.993 26.5467 187.553 26.76C188.139 26.9733 188.659 27.2667 189.113 27.64C189.993 28.36 190.526 29.2 190.713 30.16C190.926 31.12 190.873 32.0667 190.553 33C190.233 33.9333 189.673 34.76 188.873 35.48C188.099 36.2 187.179 36.68 186.113 36.92C185.339 37.08 184.499 37.16 183.593 37.16C182.713 37.16 181.833 37.0667 180.953 36.88C180.099 36.6933 179.273 36.4 178.473 36C177.699 35.6 177.046 35.0933 176.513 34.48C176.139 34.0533 175.939 33.5733 175.913 33.04C175.913 32.48 176.019 32 176.233 31.6C176.473 31.1733 176.806 30.88 177.233 30.72C177.659 30.56 178.139 30.6533 178.673 31C179.099 31.2933 179.606 31.5867 180.192 31.88C180.779 32.1467 181.366 32.36 181.953 32.52C182.539 32.68 183.099 32.76 183.633 32.76C184.193 32.76 184.673 32.64 185.073 32.4C185.659 32.0267 185.966 31.6 185.993 31.12C186.019 30.6133 185.846 30.2267 185.473 29.96ZM209.438 19.36C209.651 19.8667 209.664 20.4267 209.478 21.04C209.318 21.6533 209.011 22.0533 208.558 22.24C208.318 22.3467 207.998 22.44 207.598 22.52C207.198 22.5733 206.758 22.6267 206.278 22.68C205.824 22.7333 205.371 22.7733 204.918 22.8C204.464 22.8267 204.078 22.84 203.758 22.84C203.784 23.64 203.811 24.4667 203.838 25.32C203.864 26.1467 203.891 26.96 203.918 27.76C203.944 28.56 203.958 29.3333 203.958 30.08C203.958 30.8 203.944 31.4533 203.918 32.04C203.918 32.44 203.918 32.9067 203.918 33.44C203.918 33.9467 203.878 34.44 203.798 34.92C203.744 35.4 203.651 35.8267 203.518 36.2C203.384 36.5467 203.184 36.7733 202.918 36.88C202.091 37.2267 201.331 37.32 200.638 37.16C199.971 37.0267 199.491 36.7467 199.198 36.32C198.984 35.9733 198.824 35.5733 198.718 35.12C198.611 34.64 198.531 34.16 198.478 33.68C198.451 33.1733 198.438 32.6933 198.438 32.24C198.464 31.76 198.478 31.3467 198.478 31C198.504 29.88 198.518 28.6133 198.518 27.2C198.544 25.76 198.558 24.32 198.558 22.88H197.958C197.638 22.88 197.224 22.88 196.718 22.88C196.238 22.8533 195.744 22.8133 195.238 22.76C194.758 22.68 194.304 22.5867 193.878 22.48C193.451 22.3467 193.144 22.16 192.958 21.92C192.664 21.5733 192.478 21.2 192.398 20.8C192.344 20.4 192.371 20.0267 192.478 19.68C192.611 19.3067 192.811 18.9867 193.078 18.72C193.344 18.4267 193.651 18.24 193.998 18.16C194.478 18.0267 195.158 17.96 196.038 17.96C196.918 17.9333 197.744 17.9333 198.518 17.96C198.491 17.6933 198.478 17.44 198.478 17.2C198.478 16.9333 198.464 16.68 198.438 16.44C198.411 16.12 198.398 15.72 198.398 15.24C198.398 14.7333 198.424 14.24 198.478 13.76C198.558 13.2533 198.678 12.7867 198.838 12.36C198.998 11.9067 199.224 11.56 199.518 11.32C199.918 11 200.318 10.8267 200.718 10.8C201.144 10.7467 201.531 10.8 201.878 10.96C202.251 11.12 202.558 11.36 202.798 11.68C203.064 11.9733 203.251 12.3067 203.358 12.68C203.438 13 203.504 13.3867 203.558 13.84C203.611 14.2667 203.638 14.72 203.638 15.2C203.664 15.68 203.678 16.16 203.678 16.64C203.678 17.12 203.678 17.56 203.678 17.96H204.078C204.478 17.96 204.944 17.9467 205.478 17.92C206.011 17.8933 206.531 17.9067 207.038 17.96C207.571 18.0133 208.051 18.1467 208.478 18.36C208.904 18.5467 209.224 18.88 209.438 19.36Z" fill="white"/>
</svg>
